Coordinates
version=1
nRows=14
nColumns=24
inDegrees=yes

Units are S.I. units (second, meters, Newtons, ...)
Angles are in degrees.

endheader
time	pelvis_tilt	pelvis_list	pelvis_rotation	pelvis_tx	pelvis_ty	pelvis_tz	hip_flexion_r	hip_adduction_r	hip_rotation_r	knee_angle_r	ankle_angle_r	subtalar_angle_r	mtp_angle_r	hip_flexion_l	hip_adduction_l	hip_rotation_l	knee_angle_l	ankle_angle_l	subtalar_angle_l	mtp_angle_l	lumbar_extension	lumbar_bending	lumbar_rotation
      1.59500000	      7.98979570	     -2.78770286	     11.49329003	     -0.03614679	      1.00901802	      0.01202795	     13.18110929	     -3.02560642	    -33.16977306	    -15.51024005	     -1.61248817	      4.23374349	     15.97631155	     -6.92431104	     -4.34389002	    -13.86399169	    -20.12957848	      6.56883388	      2.97355529	      6.02998288	    -16.35112661	     -6.23274385	    -33.39377753
      1.60000000	      7.91002917	     -2.58808563	     11.70842559	     -0.03045673	      1.00790143	      0.01182444	     13.41965350	     -3.10566837	    -33.85473216	    -14.09669627	     -1.81867419	      4.99696427	     15.84581278	     -7.14586975	     -4.24023897	    -13.69345474	    -20.28057251	      6.86422579	      3.15003355	      6.13239306	    -16.35584094	     -6.40806854	    -33.61821203
      1.60500000	      7.81172434	     -2.37527638	     11.90592992	     -0.02476912	      1.00671973	      0.01162589	     13.68505741	     -3.20606349	    -34.54871914	    -12.74655243	     -1.98387650	      5.90340849	     15.57145323	     -7.36008374	     -4.10989936	    -13.52102912	    -20.41410304	      7.16300978	      3.23196700	      6.30402832	    -16.34508217	     -6.60409746	    -33.83591982
      1.61000000	      7.67993424	     -2.18548175	     12.09875875	     -0.01912627	      1.00545969	      0.01145086	     13.99813709	     -3.28556293	    -35.20163932	    -11.46673807	     -1.90482029	      6.94606045	     13.52393391	     -7.51964990	     -3.99754084	    -13.32784115	    -20.57061162	      7.36704629	      3.21400941	      7.19568871	    -16.29433959	     -6.76924827	    -33.98911554
      1.61500000	      7.56675136	     -1.99853442	     12.29508128	     -0.01344303	      1.00419747	      0.01134647	     14.27824959	     -3.34258507	    -35.84532130	    -10.17441571	     -2.08491569	      7.84171079	     13.39990653	     -7.69947706	     -3.91368744	    -13.19249741	    -20.74310396	      7.67226129	      3.42708427	      7.28451161	    -16.27063593	     -6.94034766	    -34.18538464
      1.62000000	      7.43556316	     -1.80736402	     12.49106912	     -0.00776761	      1.00289147	      0.01122669	     14.58311156	     -3.41535842	    -36.48526839	     -8.95636009	     -2.23030450	      8.81708575	     13.17564305	     -7.86341209	     -3.81468648	    -13.02856880	    -20.90871255	      7.97304749	      3.53598619	      7.42036931	    -16.23216728	     -7.11397873	    -34.37698039
      1.62500000	      7.28925173	     -1.61283887	     12.67181184	     -0.00211566	      1.00154962	      0.01112718	     14.91680418	     -3.49761524	    -37.06235053	     -7.84738009	     -2.06323234	      9.88977404	     10.69577337	     -8.01784153	     -3.70360437	    -12.86887654	    -21.05304145	      8.15167958	      3.54947596	      8.37181953	    -16.18413008	     -7.29593666	    -34.57139896
      1.63000000	      7.15813453	     -1.44332769	     12.85948548	      0.00357427	      1.00019316	      0.01107152	     15.23120352	     -3.54751984	    -37.62250288	     -6.75941812	     -2.20836418	     10.78862729	     10.57337388	     -8.17514308	     -3.63957029	    -12.73766957	    -21.23668010	      8.47582698	      3.71818884	      8.45601312	    -16.14530658	     -7.44755672	    -34.73755185
      1.63500000	      7.00479699	     -1.27032878	     13.05209966	      0.00924151	      0.99881342	      0.01098841	     15.57750397	     -3.62334739	    -38.14896939	     -5.78996780	     -2.11784192	     11.75883113	      8.86466671	     -8.31266384	     -3.55935307	    -12.56631143	    -21.39700570	      8.69044721	      3.76300383	      9.09451988	    -16.09120682	     -7.60153709	    -34.92828687
      1.64000000	      6.86336667	     -1.12160464	     13.24724195	      0.01494408	      0.99742971	      0.01094803	     15.91255821	     -3.67412153	    -38.63432779	     -4.87632066	     -2.23523702	     12.55765944	      8.74773865	     -8.44845779	     -3.52323753	    -12.42979147	    -21.59492005	      9.00403161	      3.94456183	      9.19385014	    -16.04359443	     -7.72735763	    -35.09910613
      1.64500000	      6.71952511	     -0.97412018	     13.44073463	      0.02064530	      0.99604964	      0.01085035	     16.26302707	     -3.75149353	    -39.08006411	     -4.10997460	     -2.14525458	     13.38606124	      7.29256134	     -8.59397495	     -3.47340810	    -12.25227406	    -21.75553910	      9.20611451	      3.94469439	      9.91411520	    -15.99314012	     -7.83967333	    -35.25908622
      1.65000000	      6.58354145	     -0.84631067	     13.65315011	      0.02638169	      0.99467887	      0.01080614	     16.60290519	     -3.81684197	    -39.47215976	     -3.42070424	     -2.20225149	     14.00329366	      7.18268986	     -8.73065319	     -3.47162167	    -12.10552620	    -21.95271262	      9.49296568	      4.17154065	     10.01969775	    -15.95340443	     -7.93570319	    -35.44766688
      1.65500000	      6.46779367	     -0.72022640	     13.86536166	      0.03216924	      0.99335177	      0.01069311	     16.92591177	     -3.90364843	    -39.85708475	     -2.86759504	     -2.21831722	     14.61225912	      6.95387577	     -8.90478700	     -3.46476437	    -11.93189505	    -22.12045032	      9.75621904	      4.28807517	     10.21827872	    -15.92919643	     -8.01260358	    -35.64229579
      1.66000000	      6.36308746	     -0.61443879	     14.09268895	      0.03797969	      0.99204514	      0.01058281	     17.24209091	     -3.99209475	    -40.19922279	     -2.44451629	     -2.18311312	     15.12901767	      6.58713366	     -9.08051638	     -3.49151874	    -11.75237999	    -22.29556646	      9.98742749	      4.41441605	     10.55348810	    -15.91504238	     -8.05993081	    -35.82939455
